<?xml version="1.0" encoding="UTF-8"?>
<!DOCTYPE svg PUBLIC "-//W3C//DTD SVG 1.0//EN" "http://www.w3.org/TR/2001/REC-SVG-20010904/DTD/svg10.dtd">
<!-- Creator: CorelDRAW 2020 (64-Bit) -->
<svg xmlns="http://www.w3.org/2000/svg" xml:space="preserve" width="50px" height="50px" version="1.0" style="shape-rendering:geometricPrecision; text-rendering:geometricPrecision; image-rendering:optimizeQuality; fill-rule:evenodd; clip-rule:evenodd"
viewBox="0 0 4.37 4.37"
 xmlns:xlink="http://www.w3.org/1999/xlink"
 xmlns:xodm="http://www.corel.com/coreldraw/odm/2003">
 
 <g id="Layer_x0020_1">
  <metadata id="CorelCorpID_0Corel-Layer"/>
  <path class="fil0" d="M2.18 0c1.21,0 2.19,0.98 2.19,2.18 0,0.16 -0.02,0.32 -0.06,0.47l-0.5 -0.78c-0.06,-0.09 -0.18,-0.12 -0.26,-0.06 -0.09,0.06 -0.12,0.17 -0.06,0.26l0.27 0.42c-0.03,0 -0.05,0.01 -0.08,0.01l-0.35 -0.54c-0.05,-0.09 -0.18,-0.12 -0.27,-0.06 -0.09,0.06 -0.12,0.18 -0.06,0.27l0.28 0.44c-0.02,0.01 -0.04,0.02 -0.06,0.02l-0.37 -0.57c-0.06,-0.09 -0.18,-0.12 -0.27,-0.06 -0.09,0.06 -0.12,0.18 -0.06,0.27l0.33 0.53c-0.02,0.01 -0.04,0.02 -0.06,0.03l-0.71 -1.12c-0.07,-0.11 -0.22,-0.15 -0.33,-0.08 -0.11,0.08 -0.15,0.22 -0.07,0.33l0.93 1.46c-0.48,-0.28 -0.82,-0.29 -0.85,0.11 0.45,0.15 0.71,0.52 1.05,0.74 -0.2,0.06 -0.41,0.1 -0.63,0.1 -1.2,0 -2.18,-0.98 -2.18,-2.19 0,-1.2 0.98,-2.18 2.18,-2.18zm-1.01 0.76c0.3,-0.19 0.64,-0.24 0.95,-0.17 0.18,0.04 0.35,0.12 0.5,0.24l-0.05 0.08c-0.14,-0.11 -0.3,-0.18 -0.47,-0.22 -0.29,-0.07 -0.6,-0.02 -0.87,0.15 -0.27,0.18 -0.45,0.44 -0.51,0.73 -0.04,0.17 -0.04,0.35 0,0.53l-0.1 0c-0.04,-0.18 -0.04,-0.37 0,-0.55 0.07,-0.31 0.26,-0.6 0.55,-0.79zm0.37 0.58c0.14,-0.09 0.29,-0.11 0.44,-0.08 0.12,0.03 0.23,0.09 0.31,0.19l-0.05 0.09c-0.07,-0.1 -0.17,-0.16 -0.29,-0.19 -0.12,-0.02 -0.24,0 -0.36,0.07 -0.11,0.07 -0.18,0.18 -0.21,0.3 -0.02,0.11 -0.01,0.23 0.05,0.34l-0.1 0c-0.06,-0.11 -0.07,-0.24 -0.04,-0.36 0.03,-0.15 0.12,-0.28 0.25,-0.36zm-0.18 -0.29c0.21,-0.14 0.46,-0.17 0.69,-0.12 0.15,0.03 0.29,0.1 0.41,0.2l-0.05 0.09c-0.11,-0.1 -0.24,-0.17 -0.38,-0.2 -0.21,-0.04 -0.43,-0.01 -0.62,0.11 -0.19,0.12 -0.31,0.31 -0.36,0.52 -0.03,0.14 -0.02,0.29 0.02,0.43l-0.1 0c-0.04,-0.15 -0.05,-0.3 -0.02,-0.45 0.06,-0.23 0.19,-0.44 0.41,-0.58z"/>
 </g>
</svg>
